<mxfile host="app.diagrams.net" agent="Mozilla/5.0 (X11; Linux x86_64; rv:133.0) Gecko/20100101 Firefox/133.0" version="25.0.1">
  <diagram name="Page-1" id="sTj3KivL7w3hzn2rfGb9">
    <mxGraphModel grid="1" page="1" gridSize="10" guides="1" tooltips="1" connect="1" arrows="1" fold="1" pageScale="1" pageWidth="827" pageHeight="1169" math="0" shadow="0">
      <root>
        <mxCell id="0" />
        <mxCell id="1" parent="0" />
        <mxCell id="hPdh1_yvdLX9ROR-U0re-36" value="" style="rounded=0;whiteSpace=wrap;html=1;fillColor=#E6E6E6;" vertex="1" parent="1">
          <mxGeometry x="130" y="90" width="1640" height="360" as="geometry" />
        </mxCell>
        <mxCell id="hPdh1_yvdLX9ROR-U0re-6" value="" style="whiteSpace=wrap;html=1;aspect=fixed;" vertex="1" parent="1">
          <mxGeometry x="410" y="130" width="120" height="120" as="geometry" />
        </mxCell>
        <mxCell id="hPdh1_yvdLX9ROR-U0re-8" value="Ring modulator" style="text;html=1;align=center;verticalAlign=middle;whiteSpace=wrap;rounded=0;" vertex="1" parent="1">
          <mxGeometry x="420" y="175" width="100" height="30" as="geometry" />
        </mxCell>
        <mxCell id="hPdh1_yvdLX9ROR-U0re-9" value="" style="whiteSpace=wrap;html=1;aspect=fixed;" vertex="1" parent="1">
          <mxGeometry x="410" y="290" width="120" height="120" as="geometry" />
        </mxCell>
        <mxCell id="hPdh1_yvdLX9ROR-U0re-10" value="Ring modulator" style="text;html=1;align=center;verticalAlign=middle;whiteSpace=wrap;rounded=0;" vertex="1" parent="1">
          <mxGeometry x="420" y="330" width="100" height="40" as="geometry" />
        </mxCell>
        <mxCell id="hPdh1_yvdLX9ROR-U0re-11" value="" style="rounded=0;whiteSpace=wrap;html=1;" vertex="1" parent="1">
          <mxGeometry x="570" y="130" width="80" height="280" as="geometry" />
        </mxCell>
        <mxCell id="hPdh1_yvdLX9ROR-U0re-12" value="Channel merger" style="text;html=1;align=center;verticalAlign=middle;whiteSpace=wrap;rounded=0;rotation=-90;" vertex="1" parent="1">
          <mxGeometry x="470" y="255" width="280" height="30" as="geometry" />
        </mxCell>
        <mxCell id="hPdh1_yvdLX9ROR-U0re-14" value="" style="whiteSpace=wrap;html=1;aspect=fixed;" vertex="1" parent="1">
          <mxGeometry x="690" y="210" width="120" height="120" as="geometry" />
        </mxCell>
        <mxCell id="hPdh1_yvdLX9ROR-U0re-15" value="EQ filter" style="text;html=1;align=center;verticalAlign=middle;whiteSpace=wrap;rounded=0;" vertex="1" parent="1">
          <mxGeometry x="700" y="255" width="100" height="30" as="geometry" />
        </mxCell>
        <mxCell id="hPdh1_yvdLX9ROR-U0re-20" value="" style="whiteSpace=wrap;html=1;aspect=fixed;" vertex="1" parent="1">
          <mxGeometry x="850" y="210" width="120" height="120" as="geometry" />
        </mxCell>
        <mxCell id="hPdh1_yvdLX9ROR-U0re-21" value="Echo" style="text;html=1;align=center;verticalAlign=middle;whiteSpace=wrap;rounded=0;" vertex="1" parent="1">
          <mxGeometry x="860" y="255" width="100" height="30" as="geometry" />
        </mxCell>
        <mxCell id="hPdh1_yvdLX9ROR-U0re-22" value="" style="whiteSpace=wrap;html=1;aspect=fixed;" vertex="1" parent="1">
          <mxGeometry x="1010" y="210" width="120" height="120" as="geometry" />
        </mxCell>
        <mxCell id="hPdh1_yvdLX9ROR-U0re-23" value="Saturation" style="text;html=1;align=center;verticalAlign=middle;whiteSpace=wrap;rounded=0;" vertex="1" parent="1">
          <mxGeometry x="1020" y="255" width="100" height="30" as="geometry" />
        </mxCell>
        <mxCell id="hPdh1_yvdLX9ROR-U0re-24" value="" style="whiteSpace=wrap;html=1;aspect=fixed;" vertex="1" parent="1">
          <mxGeometry x="1170" y="210" width="120" height="120" as="geometry" />
        </mxCell>
        <mxCell id="hPdh1_yvdLX9ROR-U0re-25" value="Channel Mixer" style="text;html=1;align=center;verticalAlign=middle;whiteSpace=wrap;rounded=0;" vertex="1" parent="1">
          <mxGeometry x="1180" y="255" width="100" height="30" as="geometry" />
        </mxCell>
        <mxCell id="hPdh1_yvdLX9ROR-U0re-26" value="" style="whiteSpace=wrap;html=1;aspect=fixed;" vertex="1" parent="1">
          <mxGeometry x="1331" y="210" width="120" height="120" as="geometry" />
        </mxCell>
        <mxCell id="hPdh1_yvdLX9ROR-U0re-27" value="Master Volume" style="text;html=1;align=center;verticalAlign=middle;whiteSpace=wrap;rounded=0;" vertex="1" parent="1">
          <mxGeometry x="1341" y="255" width="100" height="30" as="geometry" />
        </mxCell>
        <mxCell id="hPdh1_yvdLX9ROR-U0re-28" value="" style="whiteSpace=wrap;html=1;aspect=fixed;" vertex="1" parent="1">
          <mxGeometry x="1490" y="210" width="120" height="120" as="geometry" />
        </mxCell>
        <mxCell id="hPdh1_yvdLX9ROR-U0re-29" value="Lowpass Filter" style="text;html=1;align=center;verticalAlign=middle;whiteSpace=wrap;rounded=0;" vertex="1" parent="1">
          <mxGeometry x="1500" y="255" width="100" height="30" as="geometry" />
        </mxCell>
        <mxCell id="hPdh1_yvdLX9ROR-U0re-32" value="" style="rounded=0;whiteSpace=wrap;html=1;" vertex="1" parent="1">
          <mxGeometry x="170" y="130" width="80" height="280" as="geometry" />
        </mxCell>
        <mxCell id="hPdh1_yvdLX9ROR-U0re-33" value="Trafic shaper" style="text;html=1;align=center;verticalAlign=middle;whiteSpace=wrap;rounded=0;rotation=-90;" vertex="1" parent="1">
          <mxGeometry x="70" y="255" width="280" height="30" as="geometry" />
        </mxCell>
        <mxCell id="hPdh1_yvdLX9ROR-U0re-37" value="" style="endArrow=classic;html=1;rounded=0;" edge="1" parent="1">
          <mxGeometry width="50" height="50" relative="1" as="geometry">
            <mxPoint x="90" y="190" as="sourcePoint" />
            <mxPoint x="130" y="190" as="targetPoint" />
          </mxGeometry>
        </mxCell>
        <mxCell id="hPdh1_yvdLX9ROR-U0re-38" value="" style="endArrow=classic;html=1;rounded=0;" edge="1" parent="1">
          <mxGeometry width="50" height="50" relative="1" as="geometry">
            <mxPoint x="130" y="189.82999999999998" as="sourcePoint" />
            <mxPoint x="170" y="189.82999999999998" as="targetPoint" />
          </mxGeometry>
        </mxCell>
        <mxCell id="hPdh1_yvdLX9ROR-U0re-39" value="" style="endArrow=classic;html=1;rounded=0;" edge="1" parent="1">
          <mxGeometry width="50" height="50" relative="1" as="geometry">
            <mxPoint x="250" y="189.82999999999998" as="sourcePoint" />
            <mxPoint x="290" y="189.82999999999998" as="targetPoint" />
          </mxGeometry>
        </mxCell>
        <mxCell id="hPdh1_yvdLX9ROR-U0re-40" value="" style="endArrow=classic;html=1;rounded=0;" edge="1" parent="1">
          <mxGeometry width="50" height="50" relative="1" as="geometry">
            <mxPoint x="370" y="189.82999999999998" as="sourcePoint" />
            <mxPoint x="410" y="189.82999999999998" as="targetPoint" />
          </mxGeometry>
        </mxCell>
        <mxCell id="hPdh1_yvdLX9ROR-U0re-41" value="" style="endArrow=classic;html=1;rounded=0;" edge="1" parent="1">
          <mxGeometry width="50" height="50" relative="1" as="geometry">
            <mxPoint x="250" y="349.83" as="sourcePoint" />
            <mxPoint x="290" y="349.83" as="targetPoint" />
          </mxGeometry>
        </mxCell>
        <mxCell id="hPdh1_yvdLX9ROR-U0re-42" value="" style="endArrow=classic;html=1;rounded=0;" edge="1" parent="1">
          <mxGeometry width="50" height="50" relative="1" as="geometry">
            <mxPoint x="370" y="349.83" as="sourcePoint" />
            <mxPoint x="410" y="349.83" as="targetPoint" />
          </mxGeometry>
        </mxCell>
        <mxCell id="hPdh1_yvdLX9ROR-U0re-43" value="" style="endArrow=classic;html=1;rounded=0;" edge="1" parent="1">
          <mxGeometry width="50" height="50" relative="1" as="geometry">
            <mxPoint x="90" y="349.91999999999996" as="sourcePoint" />
            <mxPoint x="130" y="349.91999999999996" as="targetPoint" />
          </mxGeometry>
        </mxCell>
        <mxCell id="hPdh1_yvdLX9ROR-U0re-44" value="" style="endArrow=classic;html=1;rounded=0;" edge="1" parent="1">
          <mxGeometry width="50" height="50" relative="1" as="geometry">
            <mxPoint x="130" y="349.75" as="sourcePoint" />
            <mxPoint x="170" y="349.75" as="targetPoint" />
          </mxGeometry>
        </mxCell>
        <mxCell id="hPdh1_yvdLX9ROR-U0re-45" value="" style="endArrow=classic;html=1;rounded=0;" edge="1" parent="1">
          <mxGeometry width="50" height="50" relative="1" as="geometry">
            <mxPoint x="530" y="189.72999999999996" as="sourcePoint" />
            <mxPoint x="570" y="189.72999999999996" as="targetPoint" />
          </mxGeometry>
        </mxCell>
        <mxCell id="hPdh1_yvdLX9ROR-U0re-46" value="" style="endArrow=classic;html=1;rounded=0;" edge="1" parent="1">
          <mxGeometry width="50" height="50" relative="1" as="geometry">
            <mxPoint x="530" y="349.72999999999996" as="sourcePoint" />
            <mxPoint x="570" y="349.72999999999996" as="targetPoint" />
          </mxGeometry>
        </mxCell>
        <mxCell id="hPdh1_yvdLX9ROR-U0re-47" value="" style="endArrow=classic;html=1;rounded=0;" edge="1" parent="1">
          <mxGeometry width="50" height="50" relative="1" as="geometry">
            <mxPoint x="650" y="269.72999999999996" as="sourcePoint" />
            <mxPoint x="690" y="269.72999999999996" as="targetPoint" />
          </mxGeometry>
        </mxCell>
        <mxCell id="hPdh1_yvdLX9ROR-U0re-48" value="" style="endArrow=classic;html=1;rounded=0;" edge="1" parent="1">
          <mxGeometry width="50" height="50" relative="1" as="geometry">
            <mxPoint x="810" y="269.72999999999996" as="sourcePoint" />
            <mxPoint x="850" y="269.72999999999996" as="targetPoint" />
          </mxGeometry>
        </mxCell>
        <mxCell id="hPdh1_yvdLX9ROR-U0re-49" value="" style="endArrow=classic;html=1;rounded=0;" edge="1" parent="1">
          <mxGeometry width="50" height="50" relative="1" as="geometry">
            <mxPoint x="970" y="269.72999999999996" as="sourcePoint" />
            <mxPoint x="1010" y="269.72999999999996" as="targetPoint" />
          </mxGeometry>
        </mxCell>
        <mxCell id="hPdh1_yvdLX9ROR-U0re-50" value="" style="endArrow=classic;html=1;rounded=0;" edge="1" parent="1">
          <mxGeometry width="50" height="50" relative="1" as="geometry">
            <mxPoint x="1130" y="269.72999999999996" as="sourcePoint" />
            <mxPoint x="1170" y="269.72999999999996" as="targetPoint" />
          </mxGeometry>
        </mxCell>
        <mxCell id="hPdh1_yvdLX9ROR-U0re-51" value="" style="endArrow=classic;html=1;rounded=0;" edge="1" parent="1">
          <mxGeometry width="50" height="50" relative="1" as="geometry">
            <mxPoint x="1290.5" y="269.72999999999996" as="sourcePoint" />
            <mxPoint x="1330.5" y="269.72999999999996" as="targetPoint" />
          </mxGeometry>
        </mxCell>
        <mxCell id="hPdh1_yvdLX9ROR-U0re-52" value="" style="endArrow=classic;html=1;rounded=0;" edge="1" parent="1">
          <mxGeometry width="50" height="50" relative="1" as="geometry">
            <mxPoint x="1451" y="269.72999999999996" as="sourcePoint" />
            <mxPoint x="1491" y="269.72999999999996" as="targetPoint" />
          </mxGeometry>
        </mxCell>
        <mxCell id="hPdh1_yvdLX9ROR-U0re-53" value="" style="endArrow=classic;html=1;rounded=0;" edge="1" parent="1">
          <mxGeometry width="50" height="50" relative="1" as="geometry">
            <mxPoint x="1610" y="269.72999999999996" as="sourcePoint" />
            <mxPoint x="1650" y="269.72999999999996" as="targetPoint" />
          </mxGeometry>
        </mxCell>
        <mxCell id="hPdh1_yvdLX9ROR-U0re-54" value="" style="endArrow=classic;html=1;rounded=0;" edge="1" parent="1">
          <mxGeometry width="50" height="50" relative="1" as="geometry">
            <mxPoint x="1730" y="269.72999999999996" as="sourcePoint" />
            <mxPoint x="1770" y="269.72999999999996" as="targetPoint" />
          </mxGeometry>
        </mxCell>
        <mxCell id="hPdh1_yvdLX9ROR-U0re-55" value="" style="endArrow=classic;html=1;rounded=0;" edge="1" parent="1">
          <mxGeometry width="50" height="50" relative="1" as="geometry">
            <mxPoint x="1770" y="269.72999999999996" as="sourcePoint" />
            <mxPoint x="1810" y="269.72999999999996" as="targetPoint" />
          </mxGeometry>
        </mxCell>
        <mxCell id="hPdh1_yvdLX9ROR-U0re-56" value="Analog" style="text;html=1;align=center;verticalAlign=middle;whiteSpace=wrap;rounded=0;" vertex="1" parent="1">
          <mxGeometry x="40" y="175" width="60" height="30" as="geometry" />
        </mxCell>
        <mxCell id="hPdh1_yvdLX9ROR-U0re-57" value="DMA" style="text;html=1;align=center;verticalAlign=middle;whiteSpace=wrap;rounded=0;" vertex="1" parent="1">
          <mxGeometry x="46" y="336" width="60" height="30" as="geometry" />
        </mxCell>
        <mxCell id="hPdh1_yvdLX9ROR-U0re-58" value="Out" style="text;html=1;align=center;verticalAlign=middle;whiteSpace=wrap;rounded=0;" vertex="1" parent="1">
          <mxGeometry x="1800" y="255" width="60" height="30" as="geometry" />
        </mxCell>
        <mxCell id="hPdh1_yvdLX9ROR-U0re-59" value="" style="endArrow=classic;html=1;rounded=0;" edge="1" parent="1">
          <mxGeometry width="50" height="50" relative="1" as="geometry">
            <mxPoint x="130" y="470" as="sourcePoint" />
            <mxPoint x="170" y="470" as="targetPoint" />
          </mxGeometry>
        </mxCell>
        <mxCell id="hPdh1_yvdLX9ROR-U0re-60" value="AXI stream" style="text;html=1;align=center;verticalAlign=middle;whiteSpace=wrap;rounded=0;" vertex="1" parent="1">
          <mxGeometry x="160" y="460" width="100" height="30" as="geometry" />
        </mxCell>
        <mxCell id="hPdh1_yvdLX9ROR-U0re-61" value="" style="endArrow=classic;html=1;rounded=0;fillColor=#d5e8d4;strokeColor=#82b366;" edge="1" parent="1">
          <mxGeometry width="50" height="50" relative="1" as="geometry">
            <mxPoint x="130" y="500" as="sourcePoint" />
            <mxPoint x="170" y="500" as="targetPoint" />
          </mxGeometry>
        </mxCell>
        <mxCell id="hPdh1_yvdLX9ROR-U0re-62" value="AXI MM" style="text;html=1;align=center;verticalAlign=middle;whiteSpace=wrap;rounded=0;" vertex="1" parent="1">
          <mxGeometry x="160" y="490" width="100" height="30" as="geometry" />
        </mxCell>
        <mxCell id="hPdh1_yvdLX9ROR-U0re-63" value="" style="endArrow=classic;html=1;rounded=0;fillColor=#d5e8d4;strokeColor=#82b366;" edge="1" parent="1">
          <mxGeometry width="50" height="50" relative="1" as="geometry">
            <mxPoint x="90" y="430" as="sourcePoint" />
            <mxPoint x="130" y="430" as="targetPoint" />
          </mxGeometry>
        </mxCell>
        <mxCell id="hPdh1_yvdLX9ROR-U0re-64" value="" style="endArrow=classic;html=1;rounded=0;fillColor=#d5e8d4;strokeColor=#82b366;entryX=0.5;entryY=1;entryDx=0;entryDy=0;" edge="1" parent="1" target="hPdh1_yvdLX9ROR-U0re-9">
          <mxGeometry width="50" height="50" relative="1" as="geometry">
            <mxPoint x="130" y="430" as="sourcePoint" />
            <mxPoint x="170" y="430" as="targetPoint" />
            <Array as="points">
              <mxPoint x="470" y="430" />
            </Array>
          </mxGeometry>
        </mxCell>
        <mxCell id="hPdh1_yvdLX9ROR-U0re-65" value="Audio pipeline wrapper" style="text;html=1;align=center;verticalAlign=middle;whiteSpace=wrap;rounded=0;" vertex="1" parent="1">
          <mxGeometry x="585" y="90" width="650" height="30" as="geometry" />
        </mxCell>
        <mxCell id="hPdh1_yvdLX9ROR-U0re-66" value="" style="endArrow=classic;html=1;rounded=0;fillColor=#d5e8d4;strokeColor=#82b366;entryX=0.5;entryY=1;entryDx=0;entryDy=0;" edge="1" parent="1" target="hPdh1_yvdLX9ROR-U0re-6">
          <mxGeometry width="50" height="50" relative="1" as="geometry">
            <mxPoint x="390" y="430" as="sourcePoint" />
            <mxPoint x="420" y="269.72" as="targetPoint" />
            <Array as="points">
              <mxPoint x="390" y="270" />
              <mxPoint x="470" y="270" />
            </Array>
          </mxGeometry>
        </mxCell>
        <mxCell id="hPdh1_yvdLX9ROR-U0re-67" value="" style="endArrow=classic;html=1;rounded=0;fillColor=#d5e8d4;strokeColor=#82b366;entryX=0;entryY=0.5;entryDx=0;entryDy=0;" edge="1" parent="1" target="hPdh1_yvdLX9ROR-U0re-12">
          <mxGeometry width="50" height="50" relative="1" as="geometry">
            <mxPoint x="470" y="430" as="sourcePoint" />
            <mxPoint x="510" y="430" as="targetPoint" />
            <Array as="points">
              <mxPoint x="610" y="430" />
            </Array>
          </mxGeometry>
        </mxCell>
        <mxCell id="hPdh1_yvdLX9ROR-U0re-68" value="" style="endArrow=classic;html=1;rounded=0;fillColor=#d5e8d4;strokeColor=#82b366;entryX=0.5;entryY=1;entryDx=0;entryDy=0;" edge="1" parent="1" target="hPdh1_yvdLX9ROR-U0re-14">
          <mxGeometry width="50" height="50" relative="1" as="geometry">
            <mxPoint x="610" y="430" as="sourcePoint" />
            <mxPoint x="750" y="410" as="targetPoint" />
            <Array as="points">
              <mxPoint x="750" y="430" />
            </Array>
          </mxGeometry>
        </mxCell>
        <mxCell id="hPdh1_yvdLX9ROR-U0re-69" value="" style="endArrow=classic;html=1;rounded=0;fillColor=#d5e8d4;strokeColor=#82b366;entryX=0.5;entryY=1;entryDx=0;entryDy=0;" edge="1" parent="1">
          <mxGeometry width="50" height="50" relative="1" as="geometry">
            <mxPoint x="750" y="430" as="sourcePoint" />
            <mxPoint x="910" y="330" as="targetPoint" />
            <Array as="points">
              <mxPoint x="910" y="430" />
            </Array>
          </mxGeometry>
        </mxCell>
        <mxCell id="hPdh1_yvdLX9ROR-U0re-70" value="" style="endArrow=classic;html=1;rounded=0;fillColor=#d5e8d4;strokeColor=#82b366;entryX=0.5;entryY=1;entryDx=0;entryDy=0;" edge="1" parent="1">
          <mxGeometry width="50" height="50" relative="1" as="geometry">
            <mxPoint x="910" y="430" as="sourcePoint" />
            <mxPoint x="1070" y="330" as="targetPoint" />
            <Array as="points">
              <mxPoint x="1070" y="430" />
            </Array>
          </mxGeometry>
        </mxCell>
        <mxCell id="hPdh1_yvdLX9ROR-U0re-71" value="" style="endArrow=classic;html=1;rounded=0;fillColor=#d5e8d4;strokeColor=#82b366;entryX=0.5;entryY=1;entryDx=0;entryDy=0;" edge="1" parent="1">
          <mxGeometry width="50" height="50" relative="1" as="geometry">
            <mxPoint x="1070" y="430" as="sourcePoint" />
            <mxPoint x="1230" y="330" as="targetPoint" />
            <Array as="points">
              <mxPoint x="1230" y="430" />
            </Array>
          </mxGeometry>
        </mxCell>
        <mxCell id="hPdh1_yvdLX9ROR-U0re-72" value="" style="endArrow=classic;html=1;rounded=0;fillColor=#d5e8d4;strokeColor=#82b366;entryX=0.5;entryY=1;entryDx=0;entryDy=0;" edge="1" parent="1">
          <mxGeometry width="50" height="50" relative="1" as="geometry">
            <mxPoint x="1230" y="430" as="sourcePoint" />
            <mxPoint x="1390" y="330" as="targetPoint" />
            <Array as="points">
              <mxPoint x="1390" y="430" />
            </Array>
          </mxGeometry>
        </mxCell>
        <mxCell id="hPdh1_yvdLX9ROR-U0re-73" value="" style="endArrow=classic;html=1;rounded=0;fillColor=#d5e8d4;strokeColor=#82b366;entryX=0.5;entryY=1;entryDx=0;entryDy=0;" edge="1" parent="1">
          <mxGeometry width="50" height="50" relative="1" as="geometry">
            <mxPoint x="1390" y="430" as="sourcePoint" />
            <mxPoint x="1550" y="330" as="targetPoint" />
            <Array as="points">
              <mxPoint x="1550" y="430" />
            </Array>
          </mxGeometry>
        </mxCell>
        <mxCell id="hPdh1_yvdLX9ROR-U0re-74" value="PS" style="text;html=1;align=center;verticalAlign=middle;whiteSpace=wrap;rounded=0;" vertex="1" parent="1">
          <mxGeometry x="46" y="416" width="60" height="30" as="geometry" />
        </mxCell>
        <mxCell id="hPdh1_yvdLX9ROR-U0re-76" value="" style="endArrow=none;dashed=1;html=1;rounded=0;" edge="1" parent="1">
          <mxGeometry width="50" height="50" relative="1" as="geometry">
            <mxPoint x="330" y="490" as="sourcePoint" />
            <mxPoint x="330" y="50" as="targetPoint" />
          </mxGeometry>
        </mxCell>
        <mxCell id="hPdh1_yvdLX9ROR-U0re-2" value="" style="rounded=0;whiteSpace=wrap;html=1;" vertex="1" parent="1">
          <mxGeometry x="290" y="170" width="80" height="40" as="geometry" />
        </mxCell>
        <mxCell id="hPdh1_yvdLX9ROR-U0re-3" value="FIFO" style="text;html=1;align=center;verticalAlign=middle;whiteSpace=wrap;rounded=0;" vertex="1" parent="1">
          <mxGeometry x="300" y="175" width="60" height="30" as="geometry" />
        </mxCell>
        <mxCell id="hPdh1_yvdLX9ROR-U0re-4" value="" style="rounded=0;whiteSpace=wrap;html=1;" vertex="1" parent="1">
          <mxGeometry x="290" y="330" width="80" height="40" as="geometry" />
        </mxCell>
        <mxCell id="hPdh1_yvdLX9ROR-U0re-5" value="FIFO" style="text;html=1;align=center;verticalAlign=middle;whiteSpace=wrap;rounded=0;" vertex="1" parent="1">
          <mxGeometry x="300" y="335" width="60" height="30" as="geometry" />
        </mxCell>
        <mxCell id="hPdh1_yvdLX9ROR-U0re-77" value="CLK_in" style="text;html=1;align=center;verticalAlign=middle;whiteSpace=wrap;rounded=0;" vertex="1" parent="1">
          <mxGeometry x="270" y="60" width="60" height="30" as="geometry" />
        </mxCell>
        <mxCell id="hPdh1_yvdLX9ROR-U0re-78" value="CLK_audio" style="text;html=1;align=center;verticalAlign=middle;whiteSpace=wrap;rounded=0;" vertex="1" parent="1">
          <mxGeometry x="330" y="60" width="80" height="30" as="geometry" />
        </mxCell>
        <mxCell id="hPdh1_yvdLX9ROR-U0re-79" value="" style="endArrow=none;dashed=1;html=1;rounded=0;" edge="1" parent="1">
          <mxGeometry width="50" height="50" relative="1" as="geometry">
            <mxPoint x="1690" y="480" as="sourcePoint" />
            <mxPoint x="1690" y="40" as="targetPoint" />
          </mxGeometry>
        </mxCell>
        <mxCell id="hPdh1_yvdLX9ROR-U0re-80" value="CLK_out" style="text;html=1;align=center;verticalAlign=middle;whiteSpace=wrap;rounded=0;" vertex="1" parent="1">
          <mxGeometry x="1690" y="50" width="60" height="30" as="geometry" />
        </mxCell>
        <mxCell id="hPdh1_yvdLX9ROR-U0re-81" value="CLK_audio" style="text;html=1;align=center;verticalAlign=middle;whiteSpace=wrap;rounded=0;" vertex="1" parent="1">
          <mxGeometry x="1610" y="50" width="80" height="30" as="geometry" />
        </mxCell>
        <mxCell id="hPdh1_yvdLX9ROR-U0re-34" value="" style="rounded=0;whiteSpace=wrap;html=1;" vertex="1" parent="1">
          <mxGeometry x="1650" y="250" width="80" height="40" as="geometry" />
        </mxCell>
        <mxCell id="hPdh1_yvdLX9ROR-U0re-35" value="FIFO" style="text;html=1;align=center;verticalAlign=middle;whiteSpace=wrap;rounded=0;" vertex="1" parent="1">
          <mxGeometry x="1660" y="255" width="60" height="30" as="geometry" />
        </mxCell>
      </root>
    </mxGraphModel>
  </diagram>
</mxfile>
